# xmcd
#
# Track frame offsets: 
#        189
#        17535
#        34437
#        48349
#        60321
#        72372
#        85504
#        100420
#        113133
#        132187
#        150747
#        176069
#        190802
#        200357
#        207959
#
# Disc length: 3044 seconds
#
# Revision: 3
# Processed by: cddbd v1.5.2PL0 Copyright (c) Steve Scherf et al.
# Submitted via: ExactAudioCopy v1.0b3
#
DISCID=c80be20f
DTITLE=Kinky Friedman - Last of the Jewish Cowboys: The Best of Kinky 
DTITLE=Friedman
DYEAR=2006
DGENRE=Country
TTITLE0=Sold American
TTITLE1=Before All Hell Breaks Loose
TTITLE2=The Ballad of Charles Whitman
TTITLE3=Waitret, Please, Waitret
TTITLE4=Get Your Biscuits in the Oven
TTITLE5=Asshole From El Paso
TTITLE6=People Who Read People Magazine
TTITLE7=Something's Wrong With the Beaver
TTITLE8=We Reserve the Right to Refuse Service to You
TTITLE9=Homo Erectus
TTITLE10=Ride 'em Jewboy
TTITLE11=The Take-it-Easy Trailer Park
TTITLE12=Rock and Roll Across the USA
TTITLE13=Ol' Ben Lucas
TTITLE14=They Ain't Makin' Jews Like Jesus Anymore
EXTD=YEAR: 2006
EXTT0=
EXTT1=
EXTT2=
EXTT3=
EXTT4=
EXTT5=
EXTT6=
EXTT7=
EXTT8=
EXTT9=
EXTT10=
EXTT11=
EXTT12=
EXTT13=
EXTT14=
PLAYORDER=
